<svg width="75" height="72" viewBox="0 0 75 72" fill="none" xmlns="http://www.w3.org/2000/svg">
<path d="M14.2818 38.3277L2.88634 35.6681C2.56324 35.5912 2.2591 35.4495 1.99235 35.2516C1.7256 35.0537 1.50178 34.8038 1.33443 34.5169C1.16708 34.23 1.05967 33.9121 1.01873 33.5825C0.977781 33.2529 1.00414 32.9185 1.09621 32.5994L7.40769 11.3224C7.55955 10.7375 7.92435 10.2304 8.43062 9.90053L25.0839 1.33858C25.4872 1.10456 25.9477 0.987668 26.4137 1.00103H48.417C48.8893 1.00387 49.3509 1.14236 49.7468 1.39999L66.4103 9.96191C66.9138 10.2947 67.2778 10.8006 67.4332 11.3838L73.7447 32.6607C73.8367 32.9805 73.8626 33.3157 73.821 33.6459C73.7794 33.976 73.6711 34.2943 73.5028 34.5813C73.3344 34.8683 73.1094 35.1181 72.8415 35.3155C72.5736 35.5129 72.2684 35.6537 71.9443 35.7295L60.4978 38.3891" stroke="black" stroke-width="1.5" stroke-miterlimit="10"/>
<path d="M14.2817 30.6658V61.4253C14.2783 63.5165 15.0756 65.5298 16.5099 67.0516C17.9443 68.5735 19.9068 69.4885 21.9946 69.6087C26.9188 70.5109 31.9131 70.9764 36.9192 70.9999H37.8501C42.8582 70.9523 47.8525 70.4628 52.7746 69.5371C54.8606 69.4144 56.8206 68.4983 58.2528 66.9767C59.685 65.4551 60.4809 63.4433 60.4773 61.3537V30.6658" stroke="black" stroke-width="1.5" stroke-miterlimit="10" stroke-linecap="round"/>
<path d="M46.9337 1.0011C46.9756 2.28139 46.7597 3.55706 46.2986 4.75221C45.8376 5.94735 45.141 7.03758 44.2501 7.95807C43.3593 8.87856 42.2924 9.61051 41.113 10.1104C39.9336 10.6103 38.6657 10.8678 37.3847 10.8678C36.1037 10.8678 34.8358 10.6103 33.6564 10.1104C32.4769 9.61051 31.4101 8.87856 30.5192 7.95807C29.6284 7.03758 28.9317 5.94735 28.4707 4.75221C28.0097 3.55706 27.7937 2.28139 27.8356 1.0011" stroke="black" stroke-width="1.5" stroke-miterlimit="10"/>
</svg>
