<svg width="90" height="90" viewBox="0 0 90 90" fill="none" xmlns="http://www.w3.org/2000/svg">
<path d="M45 82.5C24.3375 82.5 7.5 65.6625 7.5 45C7.5 24.3375 24.3375 7.5 45 7.5C65.6625 7.5 82.5 22.65 82.5 41.25C82.5 53.6625 72.4125 63.75 60 63.75H53.3625C52.3125 63.75 51.4875 64.575 51.4875 65.625C51.4875 66.075 51.675 66.4875 51.975 66.8625C53.5125 68.625 54.375 70.8375 54.375 73.125C54.375 78.3 50.175 82.5 45 82.5ZM45 15C28.4625 15 15 28.4625 15 45C15 61.5375 28.4625 75 45 75C46.05 75 46.875 74.175 46.875 73.125C46.875 72.525 46.575 72.075 46.35 71.8125C44.8125 70.0875 43.9875 67.875 43.9875 65.625C43.9875 60.45 48.1875 56.25 53.3625 56.25H60C68.2875 56.25 75 49.5375 75 41.25C75 26.775 61.5375 15 45 15Z" fill="black"/>
<path d="M24.375 48.75C27.4816 48.75 30 46.2316 30 43.125C30 40.0184 27.4816 37.5 24.375 37.5C21.2684 37.5 18.75 40.0184 18.75 43.125C18.75 46.2316 21.2684 48.75 24.375 48.75Z" fill="black"/>
<path d="M35.625 33.75C38.7316 33.75 41.25 31.2316 41.25 28.125C41.25 25.0184 38.7316 22.5 35.625 22.5C32.5184 22.5 30 25.0184 30 28.125C30 31.2316 32.5184 33.75 35.625 33.75Z" fill="black"/>
<path d="M54.375 33.75C57.4816 33.75 60 31.2316 60 28.125C60 25.0184 57.4816 22.5 54.375 22.5C51.2684 22.5 48.75 25.0184 48.75 28.125C48.75 31.2316 51.2684 33.75 54.375 33.75Z" fill="black"/>
<path d="M65.625 48.75C68.7316 48.75 71.25 46.2316 71.25 43.125C71.25 40.0184 68.7316 37.5 65.625 37.5C62.5184 37.5 60 40.0184 60 43.125C60 46.2316 62.5184 48.75 65.625 48.75Z" fill="black"/>
</svg>
