<svg width="70" height="70" viewBox="0 0 70 70" fill="none" xmlns="http://www.w3.org/2000/svg">
<path d="M24.7913 30H45.208" stroke="black" stroke-linecap="round" stroke-linejoin="round"/>
<path d="M24.7913 38.02H45.208" stroke="black" stroke-linecap="round" stroke-linejoin="round"/>
<path d="M33.5397 30C35.4841 30.4861 39.3729 32.1875 39.3729 37.2917C39.3729 46.0417 27.7063 46.0417 27.7063 46.0417C27.7063 46.0417 33.5396 51.146 42.2896 53.3335" stroke="black" stroke-linecap="round" stroke-linejoin="round"/>
<path d="M35 67.5C52.5 67.5 65 61.3095 65 47.5307C65 32.5537 57.5 22.5691 42.5 15.0806L48.4 7.4923C48.6998 6.99445 48.8623 6.4263 48.8713 5.84545C48.8802 5.2646 48.7352 4.69174 48.4509 4.18489C48.1666 3.67805 47.7533 3.25525 47.2526 2.95936C46.7519 2.66346 46.1818 2.50499 45.6 2.5H24.4C23.8182 2.50499 23.2481 2.66346 22.7474 2.95936C22.2467 3.25525 21.8334 3.67805 21.5491 4.18489C21.2648 4.69174 21.1198 5.2646 21.1287 5.84545C21.1377 6.4263 21.3003 6.99445 21.6 7.4923L27.5 15.1305C12.5 22.6689 5 32.6536 5 47.6305C5 61.3095 17.5 67.5 35 67.5Z" stroke="black" stroke-linecap="round" stroke-linejoin="round"/>
</svg>
