<svg width="62" height="80" viewBox="0 0 62 80" fill="none" xmlns="http://www.w3.org/2000/svg">
<path d="M31.1786 1V25.0408" stroke="black" stroke-linecap="round" stroke-linejoin="round"/>
<path d="M1 25.0408H61.3571V73.1223C61.3571 74.7162 60.8678 76.2452 59.9972 77.3721C59.1267 78.4991 57.9456 79.1325 56.7143 79.1325H5.64286C4.41148 79.1325 3.23057 78.4991 2.35986 77.3721C1.48916 76.2452 1 74.7162 1 73.1223V25.0408Z" stroke="black" stroke-linecap="round" stroke-linejoin="round"/>
<path d="M1 25.0408L7.96429 7.67132C8.71508 5.71362 9.864 4.05799 11.2875 2.88248C12.7109 1.70699 14.355 1.05616 16.0429 1H46.3143C48.0419 1.00118 49.7347 1.62619 51.2032 2.80474C52.6713 3.98329 53.8561 5.66866 54.625 7.67132L61.3571 25.0408" stroke="black" stroke-linecap="round" stroke-linejoin="round"/>
<path d="M42.7857 52.0865H19.5714" stroke="black" stroke-linecap="round" stroke-linejoin="round"/>
<path d="M31.1786 37.0613V67.1123" stroke="black" stroke-linecap="round" stroke-linejoin="round"/>
</svg>
