<svg width="65" height="85" viewBox="0 0 65 85" fill="none" xmlns="http://www.w3.org/2000/svg">
<path d="M32.4729 7.01196C17.5229 7.01196 5.41666 22.7186 5.41666 42.0714C5.41666 61.4243 17.5229 77.1309 32.4729 77.1309C47.45 77.1309 59.5833 61.4243 59.5833 42.0714C59.5833 22.7186 47.45 7.01196 32.4729 7.01196ZM32.5 70.119C20.5292 70.119 10.8333 57.5677 10.8333 42.0714C10.8333 26.5752 20.5292 14.0239 32.5 14.0239C44.4708 14.0239 54.1667 26.5752 54.1667 42.0714C54.1667 57.5677 44.4708 70.119 32.5 70.119ZM33.8542 24.5417H29.7917V45.5774L44.0104 56.6211L46.0417 52.3088L33.8542 42.9479V24.5417Z" fill="black"/>
</svg>
