<svg width="62" height="62" viewBox="0 0 62 62" fill="none" xmlns="http://www.w3.org/2000/svg">
<path d="M61.3571 19.0306C61.3571 17.4366 60.8678 15.9079 59.9972 14.7807C59.1267 13.6536 57.9456 13.0204 56.7143 13.0204H47.4286L40.4643 1H21.8929L14.9286 13.0204H5.64286C4.41148 13.0204 3.23057 13.6536 2.35986 14.7807C1.48916 15.9079 1 17.4366 1 19.0306V55.0918C1 56.6857 1.48916 58.2147 2.35986 59.3416C3.23057 60.4685 4.41148 61.102 5.64286 61.102H56.7143C57.9456 61.102 59.1267 60.4685 59.9972 59.3416C60.8678 58.2147 61.3571 56.6857 61.3571 55.0918V19.0306Z" stroke="black" stroke-linecap="round" stroke-linejoin="round"/>
<path d="M31.1786 47.579C36.948 47.579 41.625 41.5245 41.625 34.056C41.625 26.5875 36.948 20.5331 31.1786 20.5331C25.4092 20.5331 20.7322 26.5875 20.7322 34.056C20.7322 41.5245 25.4092 47.579 31.1786 47.579Z" stroke="black" stroke-linecap="round" stroke-linejoin="round"/>
</svg>
