<svg width="58" height="58" viewBox="0 0 58 58" fill="none" xmlns="http://www.w3.org/2000/svg">
<path d="M37.9397 5.57982C40.5459 7.81867 42.2634 10.9172 42.7815 14.3137H43.11C46.3765 14.3137 49.5096 15.6114 51.8195 17.9213C54.1293 20.2312 55.4271 23.3641 55.4271 26.6308C55.4271 29.8975 54.1293 33.0304 51.8195 35.3403C49.5096 37.6503 46.3765 38.948 43.11 38.948H14.37C11.1033 38.948 7.97038 37.6503 5.66047 35.3403C3.35055 33.0304 2.05286 29.8975 2.05286 26.6308C2.05286 23.3641 3.35055 20.2312 5.66047 17.9213C7.97038 15.6114 11.1033 14.3137 14.37 14.3137C14.8879 10.9172 16.6057 7.81867 19.2118 5.57982C21.818 3.34098 25.14 2.10999 28.5758 2.10999C32.0115 2.10999 35.3336 3.34098 37.9397 5.57982Z" stroke="black" stroke-linecap="round" stroke-linejoin="round"/>
<path d="M22.2532 26.63L28.4117 32.7886V55.3701" stroke="black" stroke-linecap="round" stroke-linejoin="round"/>
<path d="M28.4117 32.7886L34.5703 26.63" stroke="black" stroke-linecap="round" stroke-linejoin="round"/>
</svg>
