<svg width="65" height="65" viewBox="0 0 65 65" fill="none" xmlns="http://www.w3.org/2000/svg">
<path d="M32.5001 17.5061C36.6131 17.5061 39.9473 14.1718 39.9473 10.0589C39.9473 5.94586 36.6131 2.61163 32.5001 2.61163C28.3871 2.61163 25.0529 5.94586 25.0529 10.0589C25.0529 14.1718 28.3871 17.5061 32.5001 17.5061Z" stroke="black" stroke-linecap="round" stroke-linejoin="round"/>
<path d="M9.09412 32.4003H55.9051" stroke="black" stroke-linecap="round" stroke-linejoin="round"/>
<path d="M13.3499 32.4003L15.4776 62.1892" stroke="black" stroke-linecap="round" stroke-linejoin="round"/>
<path d="M51.6499 32.4003L49.5221 62.1892" stroke="black" stroke-linecap="round" stroke-linejoin="round"/>
<path d="M32.5002 39.886L35.2376 45.4327L41.3587 46.3221L36.9295 50.6397L37.9751 56.7362L32.5002 53.8576L27.0253 56.7362L28.0709 50.6397L23.6416 46.3221L29.7627 45.4327L32.5002 39.886Z" stroke="black" stroke-linecap="round" stroke-linejoin="round"/>
<path d="M46.4286 32.5C46.4286 24.8075 40.1925 18.5715 32.5 18.5715C24.8075 18.5715 18.5714 24.8075 18.5714 32.5" stroke="black" stroke-linecap="round" stroke-linejoin="round"/>
</svg>
