<svg width="65" height="65" viewBox="0 0 65 65" fill="none" xmlns="http://www.w3.org/2000/svg">
<path d="M15.6 62.6788C22.2669 62.6788 27.6715 57.2745 27.6715 50.6073C27.6715 43.9407 22.2669 38.5361 15.6 38.5361C8.93318 38.5361 3.52862 43.9407 3.52862 50.6073C3.52862 57.2745 8.93318 62.6788 15.6 62.6788Z" stroke="black" stroke-linecap="round" stroke-linejoin="round"/>
<path d="M49.4 57.8501C56.0672 57.8501 61.4714 52.4453 61.4714 45.7787C61.4714 39.1118 56.0672 33.7073 49.4 33.7073C42.7333 33.7073 37.3288 39.1118 37.3288 45.7787C37.3288 52.4453 42.7333 57.8501 49.4 57.8501Z" stroke="black" stroke-linecap="round" stroke-linejoin="round"/>
<path d="M43.6894 35.1465C34.3108 26.705 28.6248 14.9163 27.8572 2.32153C20.2421 12.8833 16.0307 25.5172 15.7858 38.5358" stroke="black" stroke-linecap="round" stroke-linejoin="round"/>
<path d="M15.6 2.32153H39.7428" stroke="black" stroke-linecap="round" stroke-linejoin="round"/>
</svg>
