<svg xmlns="http://www.w3.org/2000/svg" viewBox="0 0 32 32"><title>hand wash</title><g id="hand_wash_water" data-name="hand wash water"><path d="M29.27,19.29c-.75-.22-4.45-1.17-6.31.14l-2-3.94a6.81,6.81,0,0,0-4.75-6.71h-.12l-.12,0H13.82a3,3,0,0,0-2.82-2,3,3,0,0,0-2.82,2H3a1,1,0,0,0-1,1v3a1,1,0,0,0,1,1H8.18a3,3,0,0,0,5.64,0H14a1.89,1.89,0,0,1,2,1.81L12.11,23.3A.93.93,0,0,0,12,24c-.3.6-.86,2,.37,2.71l4.08,2.45a1,1,0,0,0,.51.14H29a1,1,0,0,0,1-1v-8A1,1,0,0,0,29.27,19.29ZM17.62,16.75h1.76L21.51,21a7.7,7.7,0,0,0-3.77.61,3,3,0,0,0-1.6,1.82A11,11,0,0,0,14.48,23Zm-3.62-5H13a1,1,0,0,0-1,1,1,1,0,0,1-2,0,1,1,0,0,0-1-1H4v-1H9a1,1,0,0,0,1-1,1,1,0,0,1,1-1,1,1,0,0,1,.71.31.93.93,0,0,1,.29.69,1,1,0,0,0,1,1h2.85a4.72,4.72,0,0,1,3.08,4h-1A3.92,3.92,0,0,0,14,11.75Zm14,15.5H17.28l-3.57-2.14.06-.16a13.49,13.49,0,0,1,3.8,1.2.83.83,0,0,0,.43.1h5a1,1,0,0,0,0-2H18.38L18.07,24a.92.92,0,0,1,.49-.55,6.29,6.29,0,0,1,4.2-.21A1,1,0,0,0,24,22s0,0,0-.06a.91.91,0,0,0,0-.54.52.52,0,0,1,.12-.3c.55-.53,2.45-.4,4-.08ZM6,4.75a1,1,0,0,1,1-1H9.28a2,2,0,0,1,3.44,0H15a1,1,0,0,1,0,2H7A1,1,0,0,1,6,4.75Z"/></g></svg>