<svg width="58" height="58" viewBox="0 0 58 58" fill="none" xmlns="http://www.w3.org/2000/svg">
<path d="M12.4054 52.3479C12.4054 52.3479 8.29088 48.2335 4.54594 44.4883C3.00601 42.9486 2.14111 40.8601 2.14111 38.6823V21.555C2.14111 19.2875 3.97931 17.4493 6.24681 17.4493C8.51436 17.4493 10.3525 19.2875 10.3525 21.555V33.8721" stroke="black" stroke-linecap="round" stroke-linejoin="round"/>
<path d="M45.0746 52.3479C45.0746 52.3479 49.1893 48.2335 52.9342 44.4883C54.4742 42.9486 55.3389 40.8601 55.3389 38.6823V21.555C55.3389 19.2875 53.5007 17.4493 51.2332 17.4493C48.9656 17.4493 47.1274 19.2875 47.1274 21.555V33.8721" stroke="black" stroke-linecap="round" stroke-linejoin="round"/>
<path d="M14.106 41.3786L11.2028 38.4753C9.5994 36.872 9.5994 34.2723 11.2028 32.669C12.8062 31.0656 15.4057 31.0656 17.0091 32.669L22.3174 37.9772C23.8573 39.5172 24.7225 41.6056 24.7225 43.7837V52.3478" stroke="black" stroke-linecap="round" stroke-linejoin="round"/>
<path d="M43.374 41.3786L46.2772 38.4753C47.8805 36.872 47.8805 34.2723 46.2772 32.669C44.6739 31.0656 42.0742 31.0656 40.4709 32.669L35.1626 37.9772C33.6227 39.5172 32.7576 41.6056 32.7576 43.7837V52.3478" stroke="black" stroke-linecap="round" stroke-linejoin="round"/>
<path d="M37.0397 21.2087C37.0397 16.5836 28.8282 5.13214 28.8282 5.13214C28.8282 5.13214 20.6168 16.5836 20.6168 21.2087C20.6168 23.4784 21.482 25.655 23.0219 27.2599C24.5618 28.8648 26.6505 29.7664 28.8282 29.7664C31.0061 29.7664 33.0947 28.8648 34.6346 27.2599C36.1746 25.655 37.0397 23.4784 37.0397 21.2087Z" stroke="black" stroke-linecap="round" stroke-linejoin="round"/>
</svg>
