<svg width="58" height="58" viewBox="0 0 58 58" fill="none" xmlns="http://www.w3.org/2000/svg">
<path fill-rule="evenodd" clip-rule="evenodd" d="M28.7251 31.9314H28.7382H28.7574H28.7893C37.6068 31.9314 44.755 24.7832 44.755 15.9657C44.755 7.14816 37.6068 0 28.7893 0L28.7574 3.19747e-05L28.7382 0C28.7127 0 28.6871 0.000159568 28.6616 0.000494847C19.9028 0.0690994 12.8236 7.19063 12.8236 15.9657C12.8236 24.7407 19.9028 31.8622 28.6616 31.9309L28.7251 31.9314ZM41.463 17.5623H38.2704C38.2047 18.6634 38.0721 19.7317 37.879 20.7554H40.6334C41.041 19.7484 41.324 18.6776 41.463 17.5623ZM38.7605 23.9485H37.0361C36.7088 24.8916 36.3253 25.7737 35.8931 26.5821C36.9781 25.8547 37.9455 24.9652 38.7605 23.9485ZM34.6209 20.7554C34.8401 19.7543 34.9948 18.6851 35.0708 17.5623H30.3859V20.7554H34.6209ZM30.3859 23.9485H33.6159C33.3592 24.5511 33.0766 25.1075 32.7739 25.6123C31.9773 26.9397 31.1498 27.7592 30.3859 28.2243V23.9485ZM27.1927 20.7554V17.5623H22.4056C22.4816 18.6851 22.6363 19.7543 22.8555 20.7554H27.1927ZM23.8605 23.9485H27.1927V28.2847C26.4007 27.8315 25.5347 26.9991 24.7026 25.6123C24.3998 25.1075 24.1173 24.5511 23.8605 23.9485ZM19.5974 20.7554C19.4043 19.7317 19.2717 18.6634 19.2061 17.5623H16.1156C16.2546 18.6776 16.5375 19.7484 16.9452 20.7554H19.5974ZM18.8181 23.9485H20.4404C20.753 24.8495 21.117 25.6947 21.5257 26.4732C20.5053 25.7665 19.5929 24.9151 18.8181 23.9485ZM38.2704 14.3691C38.2047 13.268 38.0721 12.1997 37.879 11.176H40.6334C41.041 12.1829 41.324 13.2538 41.463 14.3691H38.2704ZM38.7605 7.98284H37.0361C36.7088 7.03975 36.3253 6.15766 35.8931 5.34929C36.9781 6.07675 37.9455 6.96615 38.7605 7.98284ZM30.3859 7.98284H33.6159C33.3592 7.3803 33.0766 6.82389 32.7739 6.31909C31.9773 4.99167 31.1498 4.17209 30.3859 3.70706V7.98284ZM34.6209 11.176H30.3859V14.3691H35.0708C34.9948 13.2463 34.8401 12.177 34.6209 11.176ZM27.1927 3.64677V7.98284H23.8605C24.1173 7.3803 24.3998 6.82389 24.7026 6.31909C25.5347 4.93231 26.4007 4.0998 27.1927 3.64677ZM27.1927 11.176H22.8555C22.6363 12.177 22.4816 13.2463 22.4056 14.3691H27.1927V11.176ZM21.5257 5.45819C21.117 6.23669 20.753 7.0819 20.4404 7.98284H18.8181C19.5929 7.01628 20.5053 6.16486 21.5257 5.45819ZM19.5974 11.176H16.9452C16.5375 12.1829 16.2546 13.2538 16.1156 14.3691H19.2061C19.2717 13.268 19.4043 12.1997 19.5974 11.176Z" fill="#333333"/>
<path d="M6.55982 42.5026C7.46587 43.4636 8.36506 44.4172 9.2106 45.6317V47.8971H21.0782V45.6317C20.8651 43.8691 20.4916 40.6927 20.4591 39.81C20.4134 38.5682 18.7464 36.3049 18.7464 36.3049L13.6301 29.853C13.6301 29.853 12.1817 28.3241 11.3529 26.6281C10.5241 24.932 8.76037 27.0674 8.526 28.5934C8.29162 30.1196 8.73754 30.9236 8.73754 30.9236L11.661 36.7316C11.661 36.7316 8.27166 32.0918 7.21952 30.2256C6.68659 29.2803 6.53747 27.2791 6.37087 25.0422C6.20856 22.8635 6.02962 20.4612 5.46298 18.5933C4.31461 14.8079 0.990558 15.7557 0.414244 17.4468C-0.162053 19.1379 -0.0315496 30.3131 0.177537 32.1763C0.341281 33.6354 1.22075 35.0623 2.21302 36.6719C2.48769 37.1175 2.77139 37.5778 3.05055 38.056C4.16177 39.9594 5.36688 41.2375 6.55982 42.5026Z" fill="#333333"/>
<path d="M48.2693 45.6317C49.1149 44.4172 50.0141 43.4636 50.9201 42.5026C52.1131 41.2375 53.3182 39.9594 54.4294 38.056C54.7085 37.5778 54.9917 37.1183 55.2663 36.6729C56.2586 35.0632 57.1386 33.6354 57.3024 32.1763C57.5116 30.3131 57.642 19.1379 57.0656 17.4468C56.4894 15.7557 53.1654 14.8079 52.017 18.5933C51.4504 20.4612 51.2714 22.8635 51.109 25.0422C50.9425 27.2791 50.7934 29.2803 50.2604 30.2256C49.2083 32.0918 45.8189 36.7316 45.8189 36.7316L48.7424 30.9236C48.7424 30.9236 49.1883 30.1196 48.954 28.5934C48.7196 27.0674 46.9559 24.932 46.1271 26.6281C45.2983 28.3241 43.8499 29.853 43.8499 29.853L38.7335 36.3049C38.7335 36.3049 37.0665 38.5682 37.0209 39.81C36.9883 40.6927 36.6149 43.8691 36.4017 45.6317V47.8971H48.2693V45.6317Z" fill="#333333"/>
<path d="M31.9314 55.8799C31.9314 56.7617 32.6462 57.4765 33.528 57.4765H46.3005C47.1823 57.4765 47.8971 56.7617 47.8971 55.8799V52.6868C47.8971 51.805 47.1823 51.0902 46.3005 51.0902H33.528C32.6462 51.0902 31.9314 51.805 31.9314 52.6868V55.8799Z" fill="#333333"/>
<path d="M25.5486 55.8799C25.5486 56.7617 24.8338 57.4765 23.952 57.4765H11.1795C10.2977 57.4765 9.58289 56.7617 9.58289 55.8799V52.6868C9.58289 51.805 10.2977 51.0902 11.1795 51.0902H23.952C24.8338 51.0902 25.5486 51.805 25.5486 52.6868V55.8799Z" fill="#333333"/>
</svg>
