<svg width="62" height="80" viewBox="0 0 62 80" fill="none" xmlns="http://www.w3.org/2000/svg">
<path d="M52.0714 27.7644C52.0714 45.795 31.1786 66.8307 31.1786 66.8307C31.1786 66.8307 10.2857 45.795 10.2857 27.7644C10.2857 13.0334 19.7989 0.718506 31.1786 0.718506C42.5582 0.718506 52.0714 13.0334 52.0714 27.7644Z" stroke="black" stroke-linecap="round" stroke-linejoin="round"/>
<path d="M31.1786 36.7796C35.0249 36.7796 38.1429 32.7433 38.1429 27.7643C38.1429 22.7853 35.0249 18.749 31.1786 18.749C27.3323 18.749 24.2143 22.7853 24.2143 27.7643C24.2143 32.7433 27.3323 36.7796 31.1786 36.7796Z" stroke="black" stroke-linecap="round" stroke-linejoin="round"/>
<path d="M50.1089 57.8154H54.3929L61.3571 78.8511H1L7.96429 57.8154H12.2482" stroke="black" stroke-linecap="round" stroke-linejoin="round"/>
</svg>
