<svg width="58" height="66" viewBox="0 0 58 66" fill="none" xmlns="http://www.w3.org/2000/svg">
<path fill-rule="evenodd" clip-rule="evenodd" d="M51.1379 35.4503L50.8671 34.8731C49.6995 32.3834 49.3584 29.7454 49.2548 27.4052C49.2027 26.2259 49.2096 25.0603 49.2212 23.9887C49.2228 23.8415 49.2244 23.6963 49.2261 23.5533C49.2367 22.6286 49.2465 21.7888 49.2275 20.9799C49.1475 17.7935 48.1446 14.6911 46.3307 12.0352C44.2646 9.47143 41.5654 7.45629 38.4801 6.18409L38.4265 6.16198L38.3737 6.13796C34.1976 4.2398 29.6465 3.25977 25.0395 3.26868L25.0359 3.26869C19.2387 3.27343 13.6928 5.53882 9.61523 9.54759C5.53961 13.5543 3.26401 18.9727 3.26863 24.6073C3.27136 27.9483 4.24355 31.7582 5.9326 35.2829C7.62561 38.816 9.91921 41.8143 12.3337 43.6719L13.608 44.6521L13.6199 59.2229C14.1514 59.8798 15.1835 60.6908 16.7312 61.3937C18.625 62.2538 20.5285 62.6015 21.6299 62.5106L21.7626 62.4996L21.8958 62.4995C25.093 62.4969 26.5884 61.5923 27.2318 61.0422C27.465 60.8428 27.6271 60.6552 27.7358 60.5074L27.7285 51.4608L31.8102 52.5122L31.8121 52.5129L31.8138 52.5132L31.8159 52.5137L31.8357 52.5186C31.861 52.5248 31.9046 52.5352 31.9653 52.5493C32.0865 52.5772 32.2753 52.6189 32.5218 52.6683C33.0158 52.767 33.7349 52.8941 34.6016 53.0004C36.3612 53.2161 38.606 53.3295 40.7731 53.0099C42.9588 52.6874 44.7801 51.9683 46.032 50.7684C47.198 49.6508 48.2237 47.7797 48.2208 44.3539L48.2185 41.5594L50.9661 41.1246L50.9682 41.1243L50.9816 41.122C50.9913 41.1202 51.0053 41.1178 51.0235 41.1143C51.0413 41.1111 51.0632 41.1068 51.0889 41.1018C51.1921 41.0813 51.3521 41.0475 51.5507 40.998C51.9573 40.8966 52.477 40.7419 52.9833 40.5278C53.5093 40.3055 53.8875 40.0748 54.1104 39.878C54.1553 39.8384 54.1869 39.8067 54.2084 39.783C54.2004 39.6953 54.1699 39.5155 54.0555 39.2248C53.8765 38.7701 53.571 38.2447 53.18 37.7014C52.7977 37.1703 52.3911 36.7014 52.0745 36.3616C51.9186 36.1942 51.7905 36.0645 51.706 35.981C51.6844 35.9597 51.6659 35.9416 51.6506 35.9267C51.6359 35.9125 51.6241 35.901 51.6154 35.8929L51.602 35.8801L51.6002 35.8785L51.1379 35.4503ZM31.0005 55.679C31.0005 55.679 32.3113 56.0167 34.2696 56.2527C40.0568 56.9502 51.4997 56.7608 51.4894 44.3511C51.4894 44.3511 56.8866 43.4973 57.4308 40.4119C57.9749 37.3267 53.8265 33.4852 53.8265 33.4852C52.4144 30.4741 52.4556 26.927 52.4944 23.5971C52.5052 22.6765 52.5156 21.7724 52.4952 20.901C52.3988 17.0367 51.1701 13.2813 48.9561 10.0845C46.5321 7.04152 43.3545 4.65845 39.7263 3.1623C35.1219 1.06954 30.1072 -0.00975578 25.0332 6.6443e-05C18.3887 0.0055087 12.0183 2.60139 7.32376 7.21664C2.62908 11.8319 -0.00533609 18.0885 8.11512e-06 24.6101C0.00643096 32.4562 4.50645 41.7743 10.3407 46.2626L10.3521 60.1444C12.0093 63.6131 18.2524 66.0688 21.8986 65.7681C29.6423 65.7619 31.0051 61.2899 31.0051 61.2899L31.0005 55.679Z" fill="#333333"/>
<path fill-rule="evenodd" clip-rule="evenodd" d="M32.8391 27.4786C34.0496 27.4786 35.2322 27.1063 36.2319 26.4101C37.2471 27.105 38.4451 27.4692 39.6676 27.4548L43.5508 26.0135C44.6452 25.0935 45.3963 23.8181 45.6787 22.4008C45.9613 20.9836 45.7578 19.5102 45.1025 18.2276C44.4471 16.945 43.3797 15.9309 42.0788 15.355C41.7819 13.9828 41.0337 12.7554 39.9585 11.8767L36.168 10.5236H35.7411C34.8981 9.26897 33.6322 8.37405 32.1844 8.00893L24.0574 7.54297C22.7067 7.65744 21.4329 8.23208 20.441 9.17441C19.9725 9.06174 19.4928 9.00333 19.0113 9.00032C17.8456 9.00275 16.7053 9.34921 15.7283 9.99803C14.7515 10.6469 13.9796 11.5701 13.5058 12.6564L10.4179 14.8872C9.64964 15.9489 9.236 17.2343 9.23796 18.554C9.23044 19.1057 9.30219 19.6557 9.4514 20.1862C8.64127 21.2583 8.20556 22.5757 8.21374 23.9292C8.21177 25.499 8.7998 27.0099 9.85687 28.1512C9.94202 29.2751 10.3272 30.3537 10.9703 31.2704C11.6136 32.1873 12.4902 32.9072 13.5058 33.3524C14.6758 34.1004 15.6667 35.1066 16.4052 36.2966C17.1438 37.4867 17.6114 38.8306 17.7736 40.2292H25.7463V33.7005C25.7448 32.5413 26.0619 31.4049 26.6617 30.4202C27.2613 29.4354 28.1197 28.6418 29.1393 28.1294C29.7126 27.9057 29.8537 27.6045 30.0264 27.2355C30.1416 26.9897 30.2709 26.7136 30.5517 26.4101C30.7955 26.5799 30.9846 26.7305 31.1484 26.861C31.6565 27.2659 31.9237 27.4786 32.8391 27.4786ZM37.483 24.4916C38.0398 24.8324 38.6817 25.0376 39.3526 25.0778L42.5428 23.8939C43.1253 23.3203 43.4953 22.609 43.6417 21.8741C43.806 21.0493 43.6927 20.1826 43.2946 19.4035C42.8927 18.6167 42.2096 17.9434 41.3179 17.5486L40.3084 17.1016L40.0506 15.9102C39.8995 15.2123 39.537 14.538 38.9731 13.9957L35.8464 12.8798H34.7056L34.0789 11.9471C33.582 11.2078 32.8159 10.6246 31.8858 10.3509L24.095 9.90422C23.2058 10.0057 22.3973 10.3944 21.7839 10.9772L21.0035 11.7185L20.0069 11.4789C19.6804 11.4004 19.345 11.3591 19.0076 11.3565C18.2035 11.3596 17.4313 11.6002 16.7854 12.0292C16.1387 12.4585 15.661 13.0472 15.3786 13.6952L15.1207 14.2863L11.8571 16.6441C11.5007 17.2356 11.3253 17.8932 11.3263 18.5429V18.5635L11.326 18.5839C11.3219 18.8781 11.3601 19.1737 11.4415 19.463L11.7935 20.7157L11.0385 21.7149C10.54 22.3747 10.2973 23.1471 10.3019 23.9064L10.3021 23.916L10.3019 23.9256C10.3009 24.8108 10.6306 25.7134 11.2983 26.4345L11.8699 27.0516L11.9374 27.942C11.9862 28.5852 12.2077 29.2267 12.606 29.7943C13.0059 30.3645 13.5718 30.8403 14.2602 31.142L14.4012 31.2039L14.5331 31.2881C14.6858 31.3856 14.8361 31.4871 14.984 31.592L14.9777 31.5976C17.8163 33.5573 19.021 36.4095 19.4297 37.868H20.0687H22.157H23.6582V33.6547C23.6582 30.4624 25.234 28.5032 26.0946 27.5756C26.7831 26.8334 27.8172 26.2078 28.2481 25.9878C28.3338 25.7709 28.6258 25.2079 29.1088 24.691C29.5917 24.1741 30.0931 23.6356 30.2833 23.4311C31.5761 24.2669 32.5797 25.1064 32.5797 25.1064C32.5797 25.1064 33.9176 25.0233 34.5252 24.7464C35.0114 24.5248 35.859 23.9095 36.2219 23.6295L37.483 24.4916Z" fill="#333333" stroke="#333333" stroke-width="1.14402"/>
<path d="M14.3938 26.1927L24.3886 24.6275L17.901 17.4432L14.3938 26.1927Z" fill="#333333"/>
<path d="M26.3312 13.2188L23.3723 18.7171L28.9741 21.6211L31.9332 16.1229L26.3312 13.2188Z" fill="#333333"/>
<path d="M45.7667 31.9974C45.7679 33.3512 44.6712 34.4498 43.3174 34.4508C41.9633 34.4519 40.8649 33.3553 40.8638 32.0014C40.8628 30.6474 41.9594 29.549 43.3133 29.5479C44.6671 29.5469 45.7657 30.6435 45.7667 31.9974Z" fill="#333333"/>
<path fill-rule="evenodd" clip-rule="evenodd" d="M24.5321 45.9064L17.9948 45.9118L17.9922 42.6432L24.5294 42.6378L24.5321 45.9064Z" fill="#333333"/>
<path fill-rule="evenodd" clip-rule="evenodd" d="M24.5374 52.4437L18.0002 52.4491L17.9976 49.1804L24.5348 49.175L24.5374 52.4437Z" fill="#333333"/>
<path fill-rule="evenodd" clip-rule="evenodd" d="M24.5428 58.9809L18.0055 58.9863L18.0029 55.7177L24.5402 55.7123L24.5428 58.9809Z" fill="#333333"/>
</svg>
