<svg width="14" height="14" viewBox="0 0 14 14" fill="none" xmlns="http://www.w3.org/2000/svg">
<g clip-path="url(#clip0_1222_31293)">
<path d="M6.52944 12.8231C6.01104 13.1569 5.39401 13.3032 4.78092 13.2377C4.16784 13.1722 3.59563 12.8989 3.15944 12.4631L2.77944 12.0831C2.61089 11.9127 2.51636 11.6827 2.51636 11.4431C2.51636 11.2034 2.61089 10.9735 2.77944 10.8031L4.37944 9.21308C4.54811 9.04515 4.77643 8.95087 5.01444 8.95087C5.25245 8.95087 5.48077 9.04515 5.64944 9.21308C5.81981 9.38163 6.04979 9.47617 6.28944 9.47617C6.52909 9.47617 6.75907 9.38163 6.92944 9.21308L9.47944 6.66308C9.64799 6.49272 9.74253 6.26274 9.74253 6.02308C9.74253 5.78343 9.64799 5.55345 9.47944 5.38308C9.31151 5.21442 9.21723 4.9861 9.21723 4.74808C9.21723 4.51007 9.31151 4.28175 9.47944 4.11308L11.0195 2.51308C11.1898 2.34454 11.4198 2.25 11.6595 2.25C11.8991 2.25 12.1291 2.34454 12.2995 2.51308L12.6795 2.89308C13.123 3.32312 13.4057 3.89228 13.4804 4.50559C13.555 5.11889 13.417 5.73923 13.0895 6.26308C11.3457 8.85187 9.11822 11.0794 6.52944 12.8231Z" stroke="black" stroke-linecap="round" stroke-linejoin="round"/>
<path d="M4 0.5H0.5V4" stroke="black" stroke-linecap="round" stroke-linejoin="round"/>
<path d="M0.5 0.5L5.49997 5.49997" stroke="black" stroke-linecap="round" stroke-linejoin="round"/>
</g>
<defs>
<clipPath id="clip0_1222_31293">
<rect width="14" height="14" fill="white"/>
</clipPath>
</defs>
</svg>
