<svg width="58" height="58" viewBox="0 0 58 58" fill="none" xmlns="http://www.w3.org/2000/svg">
<path d="M21.555 32.9312C15.9507 32.9312 4.79004 35.7334 4.79004 41.3137V45.505H38.32V41.3137C38.32 35.7334 27.1593 32.9312 21.555 32.9312ZM10.3943 40.715C12.4061 39.3259 17.268 37.7212 21.555 37.7212C25.8421 37.7212 30.7039 39.3259 32.7157 40.715H10.3943ZM21.555 28.74C26.1774 28.74 29.9375 24.9798 29.9375 20.3575C29.9375 15.7351 26.1774 11.975 21.555 11.975C16.9327 11.975 13.1725 15.7351 13.1725 20.3575C13.1725 24.9798 16.9327 28.74 21.555 28.74ZM21.555 16.765C23.5429 16.765 25.1475 18.3696 25.1475 20.3575C25.1475 22.3453 23.5429 23.95 21.555 23.95C19.5672 23.95 17.9625 22.3453 17.9625 20.3575C17.9625 18.3696 19.5672 16.765 21.555 16.765ZM38.4158 33.0749C41.194 35.0867 43.11 37.7691 43.11 41.3137V45.505H52.69V41.3137C52.69 36.4758 44.3075 33.7216 38.4158 33.0749ZM35.925 28.74C40.5474 28.74 44.3075 24.9798 44.3075 20.3575C44.3075 15.7351 40.5474 11.975 35.925 11.975C34.6317 11.975 33.4342 12.2863 32.3325 12.8132C33.8414 14.9448 34.7275 17.5553 34.7275 20.3575C34.7275 23.1596 33.8414 25.7702 32.3325 27.9017C33.4342 28.4286 34.6317 28.74 35.925 28.74Z" fill="black"/>
</svg>
