<svg xmlns="http://www.w3.org/2000/svg" viewBox="0 0 512 512"><title>Shoe</title><g id="Shoe"><path d="M436.4031,284.0918c-.5122-5.7675-3.35-15.7232-19.0867-22.0362L236.4033,178.2592a5.5008,5.5008,0,0,0-7.76,4.2344l-5.0645,36.4883a46.7583,46.7583,0,0,0,2.43,22.6551L117.125,181.7011,104.7959,174.5a5.5027,5.5027,0,0,0-7.3662,1.7227c-.4219.6411-10.419,15.9721-16.7969,39.7612-5.8212,21.7138-9.5325,54.793,5.3838,89.7874V332.75a5.5,5.5,0,0,0,5.5,5.5h93.2451a5.5,5.5,0,0,0,5.5-5.5V310.5522h2.042a65.2436,65.2436,0,0,1,36.4551,11.1909l22.13,14.8525a5.5022,5.5022,0,0,0,3.0654.9331H406.3975c16.6084,0,30.12-14.0332,30.12-31.2827V285.2109A5.5228,5.5228,0,0,0,436.4031,284.0918ZM425.5176,306.246c0,11.1841-8.5772,20.2827-19.12,20.2827H255.6289L234.89,312.6093a76.2122,76.2122,0,0,0-42.5859-13.0571h-7.542a5.5,5.5,0,0,0-5.5,5.5c0,.092.0093.1817.0137.2727-.0044.0909-.0137.1807-.0137.2727V327.25H97.0166V310.5522h66.4893a5.5,5.5,0,0,0,0-11H95.3271C85.084,274.4062,83.68,247.393,91.1592,219.2011a148.2532,148.2532,0,0,1,12.832-32.4316l7.6475,4.4658c.04.0234.08.0464.1211.0688L259.2227,272.476q.0893.049.1816.0952a173.6785,173.6785,0,0,0,72.001,18.5176c.0683.0024.1377.0039.206.0039h53.9248a5.5,5.5,0,0,0,0-11h-53.82A162.729,162.729,0,0,1,264.4365,262.79l-16.1936-8.9138a35.6232,35.6232,0,0,1-13.7673-33.3816l4.043-29.1323,174.3085,80.7373c.0918.0424.1846.0825.2793.12,8.9317,3.5522,12.4112,7.7553,12.4112,14.9917Z"/></g></svg>