<svg width="70" height="70" viewBox="0 0 70 70" fill="none" xmlns="http://www.w3.org/2000/svg">
<path d="M54.7295 67.5C53.349 67.5 52.2295 66.3805 52.2295 65C52.2295 63.6195 53.349 62.5 54.7295 62.5C56.1105 62.5 57.2295 63.6195 57.2295 65C57.2295 66.3805 56.1105 67.5 54.7295 67.5Z" stroke="black" stroke-linecap="round" stroke-linejoin="round"/>
<path d="M22.2296 67.5C20.8489 67.5 19.7296 66.3805 19.7296 65C19.7296 63.6195 20.8489 62.5 22.2296 62.5C23.6104 62.5 24.7296 63.6195 24.7296 65C24.7296 66.3805 23.6104 67.5 22.2296 67.5Z" stroke="black" stroke-linecap="round" stroke-linejoin="round"/>
<path d="M2.5 2.5H15L16.3158 15M16.3158 15L19.5288 45.5234C19.7967 48.0682 21.9425 50 24.5013 50H56.096C58.3905 50 60.3905 48.4385 60.947 46.2127L67.197 21.2127C67.986 18.0569 65.599 15 62.346 15H16.3158Z" stroke="black" stroke-linecap="round" stroke-linejoin="round"/>
<path d="M32.1002 33.75L38.7669 38.75L49.7044 26.25" stroke="black" stroke-linecap="round" stroke-linejoin="round"/>
</svg>
