<svg width="65" height="65" viewBox="0 0 65 65" fill="none" xmlns="http://www.w3.org/2000/svg">
<path d="M58.0129 48.75C60.983 43.8447 62.5862 38.2339 62.6558 32.5C62.5862 26.7661 60.983 21.1553 58.0129 16.25" stroke="black" stroke-linecap="round" stroke-linejoin="round"/>
<path d="M48.75 25.5358C50.3639 27.4871 51.1917 29.9705 51.0714 32.5001C51.1917 35.0296 50.3639 37.513 48.75 39.4643" stroke="black" stroke-linecap="round" stroke-linejoin="round"/>
<path d="M13.9286 23.2144H6.96427C4.43546 23.2144 2.32141 25.3284 2.32141 27.8573V37.143C2.32141 39.6718 4.43546 41.7858 6.96427 41.7858H13.9286L32.0821 54.8322C35.0782 56.9052 39.3832 54.7226 39.4643 51.0715V13.9286C39.5513 10.2754 35.5044 8.08914 32.5 10.1679L13.9286 23.2144Z" stroke="black" stroke-linecap="round" stroke-linejoin="round"/>
</svg>
