<svg width="58" height="102" viewBox="0 0 58 102" fill="none" xmlns="http://www.w3.org/2000/svg">
<path fill-rule="evenodd" clip-rule="evenodd" d="M8.82347 54.8539L15.6785 37.5997V52.2588L6.6597 74.8048C5.97328 76.5212 7.23716 78.3882 9.08581 78.3882H15.9338V97.3463C15.9338 99.8537 17.9089 101.905 20.3228 101.905C22.7366 101.905 24.7117 99.8537 24.7117 97.3463V78.3882H32.7671V97.3463C32.7671 99.8537 34.7423 101.905 37.1561 101.905C39.5702 101.905 41.545 99.8537 41.545 97.3463V78.3882H48.3998C50.2485 78.3882 51.5126 76.5212 50.8259 74.8048L41.8079 52.2596V38.3159L48.7066 54.3316C49.7055 56.6511 52.3958 57.7214 54.715 56.7225C57.0345 55.7233 58.1048 53.0333 57.1059 50.7137L48.387 30.4724C47.2517 27.8367 44.6573 26.1294 41.7875 26.1294H26.0545H19.3416H15.2722C12.3279 26.1294 9.68156 27.9255 8.59432 30.6618L0.324369 51.4772C-0.608188 53.8244 0.53863 56.4829 2.88557 57.4151C5.23251 58.3477 7.89091 57.2009 8.82347 54.8539Z" fill="#333333"/>
<path d="M39.1952 10.4565C39.1952 16.2313 34.5157 20.9129 28.7432 20.9129C22.9707 20.9129 18.2912 16.2313 18.2912 10.4565C18.2912 4.68152 22.9707 0 28.7432 0C34.5157 0 39.1952 4.68152 39.1952 10.4565Z" fill="#333333"/>
</svg>
