<svg width="14" height="14" viewBox="0 0 14 14" fill="none" xmlns="http://www.w3.org/2000/svg">
<path d="M7 4.875V7L8.25 8.25" stroke="black" stroke-linecap="round" stroke-linejoin="round"/>
<path d="M7 11.5C9.48528 11.5 11.5 9.48528 11.5 7C11.5 4.51472 9.48528 2.5 7 2.5C4.51472 2.5 2.5 4.51472 2.5 7C2.5 9.48528 4.51472 11.5 7 11.5Z" stroke="black" stroke-linecap="round" stroke-linejoin="round"/>
<path d="M9.5 3.25V1.5C9.5 1.23478 9.39464 0.98043 9.20711 0.792893C9.01957 0.605357 8.76522 0.5 8.5 0.5H5.5C5.23478 0.5 4.98043 0.605357 4.79289 0.792893C4.60536 0.98043 4.5 1.23478 4.5 1.5V3.25" stroke="black" stroke-linecap="round" stroke-linejoin="round"/>
<path d="M9.5 10.7344V12.5C9.5 12.7652 9.39464 13.0196 9.20711 13.2071C9.01957 13.3946 8.76522 13.5 8.5 13.5H5.5C5.23478 13.5 4.98043 13.3946 4.79289 13.2071C4.60536 13.0196 4.5 12.7652 4.5 12.5V10.7344" stroke="black" stroke-linecap="round" stroke-linejoin="round"/>
</svg>
