<svg id="Layer_2" data-name="Layer 2" xmlns="http://www.w3.org/2000/svg" viewBox="0 0 128 128"><title>CYMBALS</title><path d="M95.849,18.25h-8a9.245,9.245,0,0,0-9.234,9.234v30.8H30.8a7.886,7.886,0,0,0,0,15.772h4.519A23.548,23.548,0,0,0,58.772,95.833h5.811V108a1.75,1.75,0,0,0,1.75,1.75H91.849A1.75,1.75,0,0,0,93.6,108V88.939a4,4,0,0,1,3.992-3.992,7.5,7.5,0,0,0,7.492-7.492V27.484A9.245,9.245,0,0,0,95.849,18.25ZM82.114,60.038v-26.8h19.469V70.561H82.114Zm0-32.554a5.741,5.741,0,0,1,5.734-5.734h8a5.741,5.741,0,0,1,5.734,5.734v2.25H82.114Zm-55.7,38.689A4.391,4.391,0,0,1,30.8,61.788H78.614v8.772H30.8A4.391,4.391,0,0,1,26.417,66.174Zm12.409,7.887H78.614v5.992a12.3,12.3,0,0,1-12.281,12.28H58.772A20.049,20.049,0,0,1,38.826,74.061Zm62.757,3.395a4,4,0,0,1-3.992,3.992A7.5,7.5,0,0,0,90.1,88.939V106.25H68.083V95.736c.38-.042.751-.109,1.122-.178.106-.02.216-.029.321-.051q.742-.153,1.457-.376c.148-.046.289-.106.435-.155.327-.112.653-.224.97-.356.178-.074.348-.162.523-.243.275-.127.551-.252.817-.394.182-.1.356-.205.533-.309.248-.145.5-.289.734-.446.177-.117.346-.242.518-.366.226-.163.452-.326.669-.5.168-.135.33-.276.492-.418.207-.18.411-.363.609-.554.156-.151.307-.306.456-.463.189-.2.372-.4.551-.606q.213-.248.416-.5c.17-.214.333-.433.491-.656.126-.177.249-.355.368-.537.151-.232.292-.468.431-.708.108-.187.216-.374.317-.566.13-.248.248-.5.365-.757.089-.2.181-.389.263-.589.109-.266.2-.539.3-.812.069-.2.143-.4.2-.6.087-.29.157-.587.228-.883.046-.194.1-.386.14-.583.066-.332.11-.671.155-1.011.022-.169.055-.335.072-.506.051-.513.079-1.033.079-1.559V74.061h19.469Z"/><path d="M59.066,41.063a1.75,1.75,0,0,0,1.75-1.75V36.638a1.75,1.75,0,0,0-3.5,0v2.676A1.75,1.75,0,0,0,59.066,41.063Z"/><path d="M62.325,44.517H65a1.75,1.75,0,0,0,0-3.5H62.325a1.75,1.75,0,0,0,0,3.5Z"/><path d="M58.871,44.275a1.75,1.75,0,0,0-1.75,1.75V48.7a1.75,1.75,0,0,0,3.5,0V46.025A1.75,1.75,0,0,0,58.871,44.275Z"/><path d="M52.937,44.322h2.675a1.75,1.75,0,0,0,0-3.5H52.937a1.75,1.75,0,0,0,0,3.5Z"/></svg>